<?xml version="1.0" encoding="UTF-8"?>
<svg width="75px" height="60px" viewBox="0 0 75 60" version="1.1" xmlns="http://www.w3.org/2000/svg" xmlns:xlink="http://www.w3.org/1999/xlink">
    <!-- Generator: Sketch 63.1 (92452) - https://sketch.com -->
    <title>fiction logo</title>
    <desc>Created with Sketch.</desc>
    <g id="fiction-logo" stroke="none" stroke-width="1" fill="none" fill-rule="evenodd">
        <g id="noun_ufo_2971539" fill="#073B4C" fill-rule="nonzero">
            <g id="Group">
                <rect id="Rectangle" x="43.75" y="32.5" width="2.5" height="2.5"></rect>
                <path d="M68.14375,42.67875 C65.7600376,41.3117442 63.4582015,39.8066814 61.25,38.17125 L61.25,29.77 C62.9706844,29.1639346 64.0033671,27.4051948 63.6942342,25.6072775 C63.3851012,23.8093602 61.8242966,22.4965432 60,22.5 L59.93625,22.5 C59.3062744,10.5678196 49.447549,1.21586821 37.49875,1.21586821 C25.549951,1.21586821 15.6912256,10.5678196 15.06125,22.5 L15,22.5 C13.1757034,22.4965432 11.6148988,23.8093602 11.3057658,25.6072775 C10.9966329,27.4051948 12.0293156,29.1639346 13.75,29.77 L13.75,38.17 C11.5423608,39.8066199 9.24047857,41.3121302 6.85625,42.67875 C0.1925,46.67625 0,50.79375 0,51.25 C0,51.9403559 0.559644063,52.5 1.25,52.5 L7.625,52.5 C8.21649058,55.412905 10.777648,57.5062657 13.75,57.5062657 C16.722352,57.5062657 19.2835094,55.412905 19.875,52.5 L28.85,52.5 C29.4678688,56.8022338 33.1536248,59.9964732 37.5,59.9964732 C41.8463752,59.9964732 45.5321312,56.8022338 46.15,52.5 L55.125,52.5 C55.7164906,55.412905 58.277648,57.5062657 61.25,57.5062657 C64.222352,57.5062657 66.7835094,55.412905 67.375,52.5 L73.75,52.5 C74.4403559,52.5 75,51.9403559 75,51.25 C75,50.79375 74.8075,46.67625 68.14375,42.67875 Z M37.5,3.75 C48.0553121,3.762804 56.7885793,11.966136 57.46125,22.5 L17.53875,22.5 C18.2114207,11.966136 26.9446879,3.762804 37.5,3.75 Z M15,25 L60,25 C60.6903559,25 61.25,25.5596441 61.25,26.25 C61.25,26.9403559 60.6903559,27.5 60,27.5 L15,27.5 C14.3096441,27.5 13.75,26.9403559 13.75,26.25 C13.75,25.5596441 14.3096441,25 15,25 Z M58.75,30 L58.75,37.5 L16.25,37.5 L16.25,30 L58.75,30 Z M13.75,55 C12.161264,54.9980617 10.745442,53.9971271 10.21375,52.5 L17.28625,52.5 C16.754558,53.9971271 15.338736,54.9980617 13.75,55 Z M37.5,57.5 C34.5309517,57.4967347 31.9726025,55.4082864 31.375,52.5 L43.625,52.5 C43.0273975,55.4082864 40.4690483,57.4967347 37.5,57.5 Z M61.25,55 C59.661264,54.9980617 58.245442,53.9971271 57.71375,52.5 L64.78625,52.5 C64.254558,53.9971271 62.838736,54.9980617 61.25,55 Z M2.88625,50 C4.07662048,47.7832235 5.90926229,45.9780321 8.14375,44.82125 C10.6845807,43.372748 13.1296266,41.7623413 15.46375,40 L59.53625,40 C61.8703734,41.7623413 64.3154193,43.372748 66.85625,44.82125 C69.0909233,45.9786465 70.9242087,47.7836135 72.11625,50 L2.88625,50 Z" id="Shape"></path>
                <path d="M41.25,33.75 C41.25,31.6789322 39.5710678,30 37.5,30 C35.4289322,30 33.75,31.6789322 33.75,33.75 C33.75,35.8210678 35.4289322,37.5 37.5,37.5 C39.5710678,37.5 41.25,35.8210678 41.25,33.75 Z M37.5,35 C36.8096441,35 36.25,34.4403559 36.25,33.75 C36.25,33.0596441 36.8096441,32.5 37.5,32.5 C38.1903559,32.5 38.75,33.0596441 38.75,33.75 C38.75,34.4403559 38.1903559,35 37.5,35 Z" id="Shape"></path>
                <rect id="Rectangle" x="28.75" y="32.5" width="2.5" height="2.5"></rect>
                <path d="M26.25,33.75 C26.25,31.6789322 24.5710678,30 22.5,30 C20.4289322,30 18.75,31.6789322 18.75,33.75 C18.75,35.8210678 20.4289322,37.5 22.5,37.5 C24.5710678,37.5 26.25,35.8210678 26.25,33.75 Z M22.5,35 C21.8096441,35 21.25,34.4403559 21.25,33.75 C21.25,33.0596441 21.8096441,32.5 22.5,32.5 C23.1903559,32.5 23.75,33.0596441 23.75,33.75 C23.75,34.4403559 23.1903559,35 22.5,35 Z" id="Shape"></path>
                <path d="M48.75,33.75 C48.75,35.8210678 50.4289322,37.5 52.5,37.5 C54.5710678,37.5 56.25,35.8210678 56.25,33.75 C56.25,31.6789322 54.5710678,30 52.5,30 C50.4289322,30 48.75,31.6789322 48.75,33.75 Z M52.5,32.5 C53.1903559,32.5 53.75,33.0596441 53.75,33.75 C53.75,34.4403559 53.1903559,35 52.5,35 C51.8096441,35 51.25,34.4403559 51.25,33.75 C51.25,33.0596441 51.8096441,32.5 52.5,32.5 Z" id="Shape"></path>
                <path d="M64.39375,45.17875 L58.14375,41.42875 L56.85625,43.57125 L59.2375,45 L50,45 L50,47.5 L63.75,47.5 C64.3115563,47.4998224 64.8040696,47.1251852 64.9541413,46.584053 C65.1042129,46.0429209 64.8750038,45.4681291 64.39375,45.17875 Z" id="Path"></path>
                <path d="M18.14375,43.57125 L16.85625,41.42875 L10.60625,45.17875 C10.1249962,45.4681291 9.89578708,46.0429209 10.0458587,46.584053 C10.1959304,47.1251852 10.6884437,47.4998224 11.25,47.5 L22.5,47.5 L22.5,45 L15.7625,45 L18.14375,43.57125 Z" id="Path"></path>
                <rect id="Rectangle" x="51.25" y="17.5" width="2.5" height="2.5"></rect>
                <path d="M37.3225,6.2625 L37.6775,8.7375 C42.8382035,8.34466118 47.7412383,11.0469745 50.165,15.62 L52.335,14.38 C49.4345883,8.8855125 43.5082661,5.68105489 37.3225,6.2625 L37.3225,6.2625 Z" id="Path"></path>
                <path d="M7.5,18.75 C7.5,19.4403559 8.05964406,20 8.75,20 C9.44035594,20 10,19.4403559 10,18.75 C10,16.6789322 11.6789322,15 13.75,15 C14.4403559,15 15,14.4403559 15,13.75 C15,13.0596441 14.4403559,12.5 13.75,12.5 C11.6789322,12.5 10,10.8210678 10,8.75 C10,8.05964406 9.44035594,7.5 8.75,7.5 C8.05964406,7.5 7.5,8.05964406 7.5,8.75 C7.5,10.8210678 5.82106781,12.5 3.75,12.5 C3.05964406,12.5 2.5,13.0596441 2.5,13.75 C2.5,14.4403559 3.05964406,15 3.75,15 C5.82106781,15 7.5,16.6789322 7.5,18.75 Z M8.75,12.46125 C9.11413915,12.9516395 9.54836045,13.3858609 10.03875,13.75 C9.54836045,14.1141391 9.11413915,14.5483605 8.75,15.03875 C8.38586085,14.5483605 7.95163955,14.1141391 7.46125,13.75 C7.95163955,13.3858609 8.38586085,12.9516395 8.75,12.46125 L8.75,12.46125 Z" id="Shape"></path>
                <path d="M63.75,11.25 C63.75,11.9403559 64.3096441,12.5 65,12.5 C65.6903559,12.5 66.25,11.9403559 66.25,11.25 C66.25,9.17893219 67.9289322,7.5 70,7.5 C70.6903559,7.5 71.25,6.94035594 71.25,6.25 C71.25,5.55964406 70.6903559,5 70,5 C67.9289322,5 66.25,3.32106781 66.25,1.25 C66.25,0.559644063 65.6903559,-4.4408921e-15 65,-4.4408921e-15 C64.3096441,-4.4408921e-15 63.75,0.559644063 63.75,1.25 C63.75,3.32106781 62.0710678,5 60,5 C59.3096441,5 58.75,5.55964406 58.75,6.25 C58.75,6.94035594 59.3096441,7.5 60,7.5 C62.0710678,7.5 63.75,9.17893219 63.75,11.25 L63.75,11.25 Z M65,4.96125 C65.3641391,5.45163955 65.7983605,5.88586085 66.28875,6.25 C65.7983605,6.61413915 65.3641391,7.04836045 65,7.53875 C64.6358609,7.04836045 64.2016395,6.61413915 63.71125,6.25 C64.2016395,5.88586085 64.6358609,5.45163955 65,4.96125 L65,4.96125 Z" id="Shape"></path>
            </g>
        </g>
    </g>
</svg>