<?xml version="1.0" encoding="UTF-8"?>
<svg width="51px" height="60px" viewBox="0 0 51 60" version="1.1" xmlns="http://www.w3.org/2000/svg" xmlns:xlink="http://www.w3.org/1999/xlink">
    <!-- Generator: Sketch 63.1 (92452) - https://sketch.com -->
    <title>literature logo</title>
    <desc>Created with Sketch.</desc>
    <g id="literature-logo" stroke="none" stroke-width="1" fill="none" fill-rule="evenodd">
        <g id="noun_literature_3139028" fill="#073B4C" fill-rule="nonzero">
            <path d="M3.46258966,7.31462069 C3.465499,5.21735184 5.16583294,3.51837396 7.26310345,3.51713793 L49.5576931,3.41915172 C50.2718544,3.41831473 50.850118,2.83869407 50.8492819,2.12453276 C50.848444,1.41037144 50.2688234,0.832107831 49.5546621,0.83294392 L49.5516207,0.83294392 L7.26006207,0.930931034 C4.97938938,0.931474266 2.87225072,2.14870065 1.73238487,4.12409277 C0.592519006,6.09948489 0.59309869,8.53293369 1.73390555,10.5077825 C2.87471242,12.4826314 4.98243076,13.6988537 7.26310345,13.6983103 L48.2615586,13.6038517 L48.2615586,54.7381759 C48.2605607,55.7554421 47.4361524,56.5798503 46.4188862,56.5808483 L5.30526207,56.5808483 C4.28799585,56.5798503 3.4635876,55.7554421 3.46258966,54.7381759 L3.46258966,15.6808966 C3.46258963,14.9667353 2.88364751,14.3877931 2.16948621,14.3877931 C1.45532491,14.3877931 0.876382759,14.9667353 0.876382759,15.6808966 L0.876382759,54.7381759 C0.879039618,57.183077 2.86036092,59.1643983 5.30526207,59.1670552 L46.4188759,59.1670552 C48.863777,59.1643983 50.8450983,57.183077 50.8477552,54.7381759 L50.8477552,11.0116241 L7.26006207,11.1121448 C5.16380501,11.1096139 3.465092,9.41087779 3.46258966,7.31462069 Z" id="Path"></path>
            <path d="M17.2932414,33.4509724 C15.83146,36.7273263 15.1349724,40.293541 15.2566034,43.8791379 C15.3091235,45.2610509 15.9050795,46.5663544 16.9148793,47.5112069 L15.5505621,50.0360379 C15.3309398,50.4424355 15.344811,50.9351295 15.5869506,51.3285268 C15.8290901,51.721924 16.2627112,51.9562582 16.724473,51.9432578 C17.1862348,51.9302575 17.6059847,51.6718976 17.8256069,51.2655 L19.1331103,48.8460414 C19.4225085,48.9365462 19.7184596,49.0045827 20.0183276,49.0495448 L20.0380345,49.0525759 C20.2941203,49.0860195 20.5520983,49.1028926 20.8103586,49.1030897 C21.6515066,49.1059353 22.4812977,48.9089161 23.2313897,48.5282586 C25.1217538,47.5477962 26.8705545,46.3157199 28.430069,44.8656517 C28.8441188,44.4777666 28.9569661,43.865287 28.7083448,43.3553069 L28.677031,43.2901345 C29.1824445,43.5493741 29.7977754,43.4492422 30.1949172,43.043131 C32.1206428,40.9761877 33.5830694,38.52206 34.4844828,35.8447241 L34.5339828,35.7078414 C34.7578359,35.0947938 34.4896196,34.4110416 33.9086483,34.1137034 L33.6404276,33.9758069 L34.2046448,33.9621724 C34.7731859,33.9484117 35.2660153,33.5648476 35.4189517,33.0170897 C36.7161921,28.6636395 36.8163338,24.0410625 35.7088448,19.6355172 C35.5175619,18.9754518 34.8429235,18.5807427 34.1737966,18.7374103 C28.3911931,20.0855172 22.1075172,25.0387241 18.5373414,31.0627655 C18.2351621,31.5730065 18.3186436,32.2233739 18.7398931,32.6407552 L18.2979207,32.700869 C17.8560911,32.760941 17.4763916,33.0444284 17.2932414,33.4509724 L17.2932414,33.4509724 Z M19.3712897,35.1648414 L23.1778655,34.6470931 C23.7546747,34.5686014 24.2079101,34.1143286 24.2850828,33.5373414 L24.3310552,33.1938931 C24.4108673,32.5995706 24.0714277,32.0284025 23.5112483,31.8144207 L21.5907828,31.0799379 C24.4793903,26.748008 28.6555377,23.4326695 33.5297483,21.6018931 C34.1080604,24.85669 33.9845859,28.1974632 33.1675862,31.4006897 L29.2155414,31.496669 C28.6356865,31.5107694 28.1361803,31.9093002 27.9936621,32.4715448 L27.906269,32.8160276 C27.7578191,33.4005315 28.0332237,34.0100271 28.5699931,34.2849103 L31.7048276,35.8901897 C31.0637306,37.524875 30.1773566,39.0523615 29.0762069,40.4200862 L26.6304207,38.6890448 C26.1623525,38.3579634 25.5321627,38.3746174 25.0822345,38.7299586 L24.8135172,38.9421103 C24.3362977,39.3186017 24.1859498,39.9767698 24.4523586,40.523131 L25.9550793,43.6084034 C24.7545454,44.6235331 23.4447996,45.5019465 22.0500103,46.2274345 C21.5330775,46.4817647 20.9510647,46.5730126 20.3811,46.4890862 C19.7997669,46.4117484 19.2547312,46.1627115 18.8157414,45.7738448 C18.2225607,45.2825802 17.8679224,44.5609877 17.8413621,43.7912483 C17.7420382,40.8403986 18.2632528,37.9015608 19.3712897,35.1648414 L19.3712897,35.1648414 Z" id="Shape"></path>
        </g>
    </g>
</svg>