<?xml version="1.0" encoding="UTF-8"?>
<svg width="62px" height="64px" viewBox="0 0 62 64" version="1.1" xmlns="http://www.w3.org/2000/svg" xmlns:xlink="http://www.w3.org/1999/xlink">
    <!-- Generator: Sketch 63.1 (92452) - https://sketch.com -->
    <title>Mystery Symbol</title>
    <desc>Created with Sketch.</desc>
    <g id="Mystery-Symbol" stroke="none" stroke-width="1" fill="none" fill-rule="evenodd">
        <path d="M61.188,63.298 L51.439,43.129 C51.439,43.129 51.439,43.129 51.44,43.128 L54.95,39.298 L51.44,35.468 C49.631,33.495 47.559,31.815 45.308,30.445 L30.594,0 L15.879,30.445 C13.629,31.815 11.557,33.495 9.748,35.468 L6.238,39.298 L9.748,43.128 C9.748,43.128 9.749,43.129 9.749,43.129 L4.97379915e-14,63.298 L61.188,63.298 Z M3.188,61.298 L11.245,44.628 C16.462,49.521 23.398,52.298 30.594,52.298 C37.79,52.298 44.726,49.521 49.943,44.629 L58,61.298 L3.188,61.298 Z M49.966,36.819 L52.238,39.298 L49.966,41.777 C47.082,44.923 43.488,47.283 39.544,48.714 C40.438,47.867 41.223,46.892 41.855,45.799 L40.123,44.798 C38.16,48.19 34.509,50.298 30.594,50.298 C24.529,50.298 19.594,45.363 19.594,39.298 C19.594,33.233 24.529,28.298 30.594,28.298 C36.659,28.298 41.594,33.233 41.594,39.298 C41.594,40.556 41.384,41.79 40.968,42.965 L42.854,43.632 C43.345,42.242 43.594,40.784 43.594,39.298 C43.594,35.589 42.025,32.247 39.525,29.876 C43.476,31.306 47.077,33.668 49.966,36.819 Z M30.594,4.596 L42.321,28.859 C38.672,27.195 34.675,26.298 30.594,26.298 C26.513,26.298 22.516,27.195 18.867,28.859 L30.594,4.596 Z M8.95,39.298 L11.222,36.819 C14.11,33.668 17.711,31.306 21.663,29.876 C19.163,32.247 17.594,35.589 17.594,39.298 C17.594,43.007 19.163,46.349 21.663,48.72 C17.712,47.29 14.111,44.927 11.222,41.776 L8.95,39.298 Z" id="Shape" fill="#073B4C" fill-rule="nonzero"></path>
        <path d="M30.594,30.298 C25.632,30.298 21.594,34.336 21.594,39.298 C21.594,44.26 25.632,48.298 30.594,48.298 C35.556,48.298 39.594,44.26 39.594,39.298 C39.594,34.336 35.556,30.298 30.594,30.298 Z M30.594,46.298 C26.734,46.298 23.594,43.158 23.594,39.298 C23.594,35.438 26.734,32.298 30.594,32.298 C34.454,32.298 37.594,35.438 37.594,39.298 C37.594,43.158 34.454,46.298 30.594,46.298 Z" id="Shape" fill="#073B4C" fill-rule="nonzero"></path>
        <path d="M30.594,34.298 C27.837,34.298 25.594,36.541 25.594,39.298 C25.594,42.055 27.837,44.298 30.594,44.298 C33.351,44.298 35.594,42.055 35.594,39.298 C35.594,36.541 33.351,34.298 30.594,34.298 Z M30.594,42.298 C28.94,42.298 27.594,40.952 27.594,39.298 C27.594,37.644 28.94,36.298 30.594,36.298 C32.248,36.298 33.594,37.644 33.594,39.298 C33.594,40.952 32.248,42.298 30.594,42.298 Z" id="Shape" fill="#073B4C" fill-rule="nonzero"></path>
    </g>
</svg>