<svg xmlns:dc="http://purl.org/dc/elements/1.1/" xmlns:cc="http://creativecommons.org/ns#" xmlns:rdf="http://www.w3.org/1999/02/22-rdf-syntax-ns#" xmlns:svg="http://www.w3.org/2000/svg" xmlns="http://www.w3.org/2000/svg" xmlns:sodipodi="http://sodipodi.sourceforge.net/DTD/sodipodi-0.dtd" xmlns:inkscape="http://www.inkscape.org/namespaces/inkscape" viewBox="0 0 45 56.25" version="1.1" x="0px" y="0px"><g transform="translate(0,-1007.3622)"><path style="color:#000000;font-style:normal;font-variant:normal;font-weight:normal;font-stretch:normal;font-size:medium;line-height:normal;font-family:sans-serif;text-indent:0;text-align:start;text-decoration:none;text-decoration-line:none;text-decoration-style:solid;text-decoration-color:#000000;letter-spacing:normal;word-spacing:normal;text-transform:none;direction:ltr;block-progression:tb;writing-mode:lr-tb;baseline-shift:baseline;text-anchor:start;white-space:normal;clip-rule:nonzero;display:inline;overflow:visible;visibility:visible;opacity:1;isolation:auto;mix-blend-mode:normal;color-interpolation:sRGB;color-interpolation-filters:linearRGB;solid-color:#000000;solid-opacity:1;fill:#000000;fill-opacity:1;fill-rule:evenodd;stroke:none;stroke-width:0.99999994px;stroke-linecap:round;stroke-linejoin:round;stroke-miterlimit:4;stroke-dasharray:none;stroke-dashoffset:0;stroke-opacity:1;color-rendering:auto;image-rendering:auto;shape-rendering:auto;text-rendering:auto;enable-background:accumulate" d="m 20.21875,1018.1445 c -0.932921,-0.09 -1.881409,-0.026 -2.765625,0.1524 -1.461902,0.2953 -2.698324,1.1885 -3.738281,2.084 -0.352054,0.3029 -0.682546,0.7441 -0.957032,1.1289 -0.08083,0.1133 -0.07551,0.1129 -0.140624,0.209 -0.218865,-0.2193 -0.350418,-0.3699 -0.81836,-0.7735 -0.723452,-0.624 -1.597771,-1.3167 -2.4667968,-1.5703 -1.6082818,-0.4694 -3.4366328,-0.3144 -4.9550781,0.377 -1.7431612,0.7935 -3.66546183,2.1634 -4.2050781,4.1875 -0.63029386,2.3644 0.58826913,4.8578 1.8203125,6.7304 1.6804246,2.5541 5.0945861,5.2634 8.1035155,7.3887 3.00893,2.1253 5.617188,3.6406 5.617188,3.6406 a 0.50004997,0.50004997 0 0 0 0.605468,-0.08 c 0,0 3.583244,-3.5842 5.076172,-5.789 0.674062,-0.9955 1.511719,-2.9668 1.511719,-2.9668 a 0.5003672,0.5003672 0 1 0 -0.917969,-0.3985 c 0,0 -0.887435,2.0154 -1.421875,2.8047 -1.28121,1.8922 -4.345713,4.9903 -4.693359,5.3438 -0.289672,-0.1697 -2.414611,-1.4029 -5.201172,-3.3711 -2.9694783,-2.0975 -6.3319958,-4.8234 -7.84375,-7.1211 -1.1687566,-1.7764 -2.18665005,-4.0587 -1.6894531,-5.9238 0.4104031,-1.5394 2.0621751,-2.8113 3.6523437,-3.5352 1.2890154,-0.5869 2.9094035,-0.7203 4.2597656,-0.3262 0.5311102,0.155 1.4114328,0.7787 2.0937498,1.3672 0.682317,0.5885 1.195313,1.127 1.195313,1.127 a 0.50004997,0.50004997 0 0 0 0.787109,-0.08 c 0,0 0.187309,-0.2993 0.443359,-0.6582 0.256051,-0.3589 0.595485,-0.7798 0.796876,-0.9531 0.988089,-0.8508 2.103849,-1.6231 3.283203,-1.8614 1.584212,-0.3195 3.405314,-0.2077 4.763671,0.5254 1.210265,0.6533 2.322277,1.8697 2.591797,3.1172 0.07414,0.3432 -0.09922,1.1628 -0.347656,1.8301 -0.248436,0.6673 -0.52539,1.2012 -0.525391,1.2012 a 0.50013673,0.50013673 0 1 0 0.886719,0.4629 c 0,0 0.303326,-0.5817 0.576172,-1.3145 0.272846,-0.7328 0.560241,-1.5965 0.388672,-2.3906 -0.356029,-1.6479 -1.664047,-3.0154 -3.09375,-3.7871 -0.820745,-0.443 -1.738954,-0.6872 -2.671875,-0.7774 z"/><path style="color:#000000;font-style:normal;font-variant:normal;font-weight:normal;font-stretch:normal;font-size:medium;line-height:normal;font-family:sans-serif;text-indent:0;text-align:start;text-decoration:none;text-decoration-line:none;text-decoration-style:solid;text-decoration-color:#000000;letter-spacing:normal;word-spacing:normal;text-transform:none;direction:ltr;block-progression:tb;writing-mode:lr-tb;baseline-shift:baseline;text-anchor:start;white-space:normal;clip-rule:nonzero;display:inline;overflow:visible;visibility:visible;opacity:1;isolation:auto;mix-blend-mode:normal;color-interpolation:sRGB;color-interpolation-filters:linearRGB;solid-color:#000000;solid-opacity:1;fill:#000000;fill-opacity:1;fill-rule:evenodd;stroke:none;stroke-width:0.99999994px;stroke-linecap:round;stroke-linejoin:round;stroke-miterlimit:4;stroke-dasharray:none;stroke-dashoffset:0;stroke-opacity:1;color-rendering:auto;image-rendering:auto;shape-rendering:auto;text-rendering:auto;enable-background:accumulate" d="m 27.183594,1017.959 c -0.85509,-0.028 -1.818739,0.3414 -2.63086,0.6914 -0.81212,0.35 -1.449218,0.7051 -1.449218,0.7051 a 0.50004997,0.50004997 0 1 0 0.486328,0.873 c 0,0 0.596696,-0.3323 1.357422,-0.6601 0.760725,-0.3279 1.707276,-0.6256 2.203125,-0.6094 1.157773,0.037 2.345424,0.7185 3.40625,1.4687 0.35347,0.25 0.901813,0.8332 1.324218,1.3379 0.422406,0.5048 0.736329,0.9336 0.736329,0.9336 a 0.50004997,0.50004997 0 0 0 0.792968,0.016 c 0,0 0.441341,-0.5502 1.039063,-1.1757 0.597722,-0.6256 1.376393,-1.3188 1.880859,-1.5606 1.290727,-0.6186 2.868533,-1.0666 4.044922,-0.6387 1.563362,0.5688 2.885423,2.2163 3.369141,3.8614 0.648356,2.2049 -0.06686,4.8549 -1.074219,7.0781 -0.884819,1.9533 -3.076443,4.5572 -5.039063,6.623 -1.828283,1.9244 -3.223602,3.1741 -3.4375,3.3672 -0.382981,-0.1982 -3.244548,-1.6711 -4.671875,-2.6523 -2.30796,-1.5866 -4.755628,-3.0387 -6.318359,-5.1738 -1.197925,-1.6366 -2.105171,-3.6255 -2.257813,-5.6016 -0.03618,-0.4675 0.148954,-1.3628 0.363282,-2.0898 0.214327,-0.7271 0.441406,-1.3047 0.441406,-1.3047 a 0.50004997,0.50004997 0 1 0 -0.931641,-0.3633 c 0,0 -0.241141,0.6126 -0.46875,1.3848 -0.227608,0.7721 -0.459704,1.6848 -0.40039,2.4511 0.171829,2.2245 1.164453,4.3608 2.447265,6.1133 1.725964,2.3581 4.291782,3.8499 6.558594,5.4082 1.662609,1.1429 5.091797,2.8926 5.091797,2.8926 a 0.50004997,0.50004997 0 0 0 0.560547,-0.072 c 0,0 1.757429,-1.5745 3.75,-3.6719 1.992571,-2.0973 4.226181,-4.6942 5.224609,-6.8984 1.054923,-2.3282 1.883498,-5.1786 1.121094,-7.7715 -0.568342,-1.9329 -2.028802,-3.8073 -3.986328,-4.5195 -1.625599,-0.5914 -3.42373,0.01 -4.818359,0.6758 -0.771418,0.3696 -1.541756,1.114 -2.171876,1.7734 -0.394079,0.4124 -0.493508,0.5471 -0.685546,0.7754 -0.138898,-0.18 -0.16867,-0.2301 -0.394532,-0.5 -0.444256,-0.5309 -0.984108,-1.1406 -1.511718,-1.5137 -1.107461,-0.7832 -2.438933,-1.6036 -3.951172,-1.6523 z"/></g><text x="0" y="60" fill="#000000" font-size="5px" font-weight="bold" font-family="'Helvetica Neue', Helvetica, Arial-Unicode, Arial, Sans-serif">Created by P Thanga Vignesh</text><text x="0" y="65" fill="#000000" font-size="5px" font-weight="bold" font-family="'Helvetica Neue', Helvetica, Arial-Unicode, Arial, Sans-serif">from the Noun Project</text></svg>