<?xml version="1.0" encoding="UTF-8"?>
<svg width="85px" height="65px" viewBox="0 0 85 65" version="1.1" xmlns="http://www.w3.org/2000/svg" xmlns:xlink="http://www.w3.org/1999/xlink">
    <!-- Generator: Sketch 63.1 (92452) - https://sketch.com -->
    <title>logo</title>
    <desc>Created with Sketch.</desc>
    <g id="logo" stroke="none" stroke-width="1" fill="none" fill-rule="evenodd">
        <path d="M1.498,58.818 L36.356,58.856 C37.042,60.506 37.803,61.831 38.681,62.844 C39.726,64.05 41.041,64.863 42.501,64.863 C43.961,64.863 45.276,64.05 46.322,62.845 C47.201,61.832 47.964,60.506 48.652,58.856 L83.501,58.818 C84.329,58.817 84.999,58.146 84.999,57.318 L84.999,1.5 C84.999,0.672 84.327,2.84217094e-14 83.499,2.84217094e-14 L1.5,2.84217094e-14 C0.672,2.84217094e-14 1.42108547e-14,0.672 1.42108547e-14,1.5 L1.42108547e-14,57.318 C1.42108547e-14,58.146 0.67,58.817 1.498,58.818 Z M44.005,3 L82,3 L82,55.82 L47.63,55.858 C47.004,55.859 46.444,56.248 46.226,56.834 C45.522,58.726 44.748,60.083 44.057,60.879 C44.04,60.899 44.023,60.917 44.005,60.936 L44.005,3 Z M3,3 L41.005,3 L41.005,60.943 C40.986,60.922 40.967,60.902 40.948,60.88 C40.258,60.084 39.486,58.727 38.784,56.835 C38.566,56.248 38.006,55.858 37.379,55.857 L3,55.82 L3,3 Z" id="Shape" fill="#F3E9E0" fill-rule="nonzero"></path>
    </g>
</svg>